<svg width="20" height="25" viewBox="0 0 20 25" fill="none" xmlns="http://www.w3.org/2000/svg">
<path d="M16.6891 13.9514C16.0316 10.6421 19.1727 8.70116 19.1727 8.70116C19.1727 8.70116 17.9489 6.93058 15.8921 6.47508C13.8363 6.01858 12.8074 6.58893 11.7805 7.0167C10.7526 7.44552 10.2397 7.44552 10.2397 7.44552C8.75637 7.44552 7.67203 5.87496 4.84588 6.58998C2.89886 7.08133 0.849211 9.32896 0.478887 12.0115C0.108563 14.6951 0.907706 18.1193 2.4485 20.7732C3.98929 23.4291 5.55885 24.4272 6.67287 24.4559C7.78693 24.4836 8.89895 23.6579 10.2397 23.4568C11.5815 23.2578 12.4073 23.9431 13.7234 24.3134C15.0344 24.6827 15.494 24.3401 17.004 23.0557C18.5182 21.7713 19.8887 18.0876 19.8887 18.0876C19.8887 18.0876 17.3467 17.2628 16.6891 13.9514Z" fill="white"/>
<path d="M13.7778 4.33399C15.2345 2.84965 14.7411 0.551758 14.7411 0.551758C14.7411 0.551758 12.6956 0.910811 11.325 2.3367C9.95554 3.76364 10.1822 6.01741 10.1822 6.01741C10.1822 6.01741 12.3211 5.81738 13.7778 4.33399Z" fill="white"/>
</svg>
