<svg width="20" height="20" viewBox="0 0 20 20" fill="none" xmlns="http://www.w3.org/2000/svg">
<path d="M10 11.7588C9.67672 11.7588 9.41406 12.0214 9.41406 12.3448C9.41406 12.6681 9.67672 12.9307 10 12.9307C10.3234 12.9307 10.586 12.6681 10.586 12.3448C10.586 12.0214 10.3234 11.7588 10 11.7588Z" fill="#92929D"/>
<path d="M13.516 8.24268H6.21846C4.09986 8.24268 2.38232 9.96013 2.38232 12.0788C2.38232 15.6978 4.78389 19.061 8.32217 19.821C13.2506 20.8796 17.6178 17.0927 17.6178 12.3445C17.6178 10.0792 15.7814 8.24268 13.516 8.24268ZM10.586 13.9945V17.0715C10.586 17.3954 10.3239 17.6574 10.0001 17.6574C9.67616 17.6574 9.41409 17.3954 9.41409 17.0715V13.9945C8.7335 13.7518 8.24213 13.1075 8.24213 12.3445C8.24213 11.3752 9.03069 10.5866 10.0001 10.5866C10.9694 10.5866 11.758 11.3752 11.758 12.3445C11.758 13.1075 11.2666 13.7518 10.586 13.9945Z" fill="#92929D"/>
<path d="M9.99991 0C7.08174 0 4.72607 2.35562 4.72607 5.27383V7.3234C5.20053 7.17391 5.69533 7.07086 6.2185 7.07086H7.07002V5.27383C7.07002 3.65652 8.3826 2.34395 9.99991 2.34395C11.6172 2.34395 12.9298 3.65652 12.9298 5.27383V7.07082H13.5158C14.1351 7.07082 14.7211 7.19777 15.2737 7.3948V5.27383C15.2737 2.35844 12.9123 0 9.99991 0Z" fill="#92929D"/>
</svg>
