<svg width="138" height="138" viewBox="0 0 138 138" fill="none" xmlns="http://www.w3.org/2000/svg">
<path d="M11.704 131.28C9.72533 131.28 7.93333 130.851 6.328 129.992C4.74133 129.115 3.49067 127.911 2.576 126.38C1.68 124.849 1.232 123.123 1.232 121.2C1.232 119.277 1.68933 117.551 2.604 116.02C3.51867 114.489 4.76933 113.295 6.356 112.436C7.96133 111.559 9.75333 111.12 11.732 111.12C13.3373 111.12 14.8027 111.4 16.128 111.96C17.4533 112.52 18.5733 113.332 19.488 114.396L17.136 116.608C15.7173 115.077 13.972 114.312 11.9 114.312C10.556 114.312 9.352 114.611 8.288 115.208C7.224 115.787 6.39333 116.599 5.796 117.644C5.19867 118.689 4.9 119.875 4.9 121.2C4.9 122.525 5.19867 123.711 5.796 124.756C6.39333 125.801 7.224 126.623 8.288 127.22C9.352 127.799 10.556 128.088 11.9 128.088C13.972 128.088 15.7173 127.313 17.136 125.764L19.488 128.004C18.5733 129.068 17.444 129.88 16.1 130.44C14.7747 131 13.3093 131.28 11.704 131.28ZM23.0958 111.4H26.7358V131H23.0958V111.4ZM49.5732 111.4V131H46.5772L35.7692 117.728V131H32.1572V111.4H35.1532L45.9612 124.672V111.4H49.5732ZM69.6451 127.948V131H54.9451V111.4H69.2531V114.452H58.5851V119.548H68.0491V122.544H58.5851V127.948H69.6451ZM91.8269 131L91.7989 118.008L85.3589 128.76H83.7349L77.2949 118.176V131H73.8229V111.4H76.8189L84.6029 124.392L92.2469 111.4H95.2429L95.2709 131H91.8269ZM113.397 126.464H103.597L101.665 131H97.9131L106.733 111.4H110.317L119.165 131H115.357L113.397 126.464ZM112.193 123.608L108.497 115.04L104.829 123.608H112.193ZM133.141 131L127.821 123.552L122.557 131H118.413L125.693 121.004L118.805 111.4H122.921L127.933 118.372L132.889 111.4H136.837L129.977 120.864L137.341 131H133.141Z" fill="#12CDD9"/>
<g clip-path="url(#clip0_48_12947)">
<path d="M101 21.9999H73.1698L85.2332 9.93659L82.6665 7.33325L67.9998 21.9999L53.3332 7.33325L50.7298 9.93659L62.8298 21.9999H34.9998C30.9665 21.9999 27.6665 25.2633 27.6665 29.3333V73.3333C27.6665 77.3666 30.9665 80.6666 34.9998 80.6666H101C105.033 80.6666 108.333 77.3666 108.333 73.3333V29.3333C108.333 25.2633 105.033 21.9999 101 21.9999ZM101 73.3333H34.9998V29.3333H101V73.3333Z" fill="#12CDD9"/>
<path fill-rule="evenodd" clip-rule="evenodd" d="M58 37C55.7909 37 54 38.7909 54 41V61C54 63.2091 55.7909 65 58 65H78C80.2091 65 82 63.2091 82 61V41C82 38.7909 80.2091 37 78 37H58ZM61.1437 54.9341C61.846 55.3097 62.63 55.4976 63.4957 55.4976C64.198 55.4976 64.8391 55.3751 65.4189 55.1301C66.0069 54.8851 66.501 54.5298 66.9012 54.0643L65.8722 53.0843C65.2515 53.7621 64.4879 54.1011 63.5814 54.1011C62.9934 54.1011 62.4667 53.9745 62.0012 53.7213C61.5357 53.46 61.1723 53.1006 60.9109 52.6433C60.6496 52.186 60.5189 51.6674 60.5189 51.0876C60.5189 50.5077 60.6496 49.9891 60.9109 49.5318C61.1723 49.0745 61.5357 48.7192 62.0012 48.4661C62.4667 48.2047 62.9934 48.0741 63.5814 48.0741C64.4879 48.0741 65.2515 48.4089 65.8722 49.0786L66.9012 48.1108C66.501 47.6453 66.011 47.2901 65.4312 47.0451C64.8514 46.8001 64.2103 46.6776 63.5079 46.6776C62.6423 46.6776 61.8583 46.8695 61.1559 47.2533C60.4618 47.629 59.9146 48.1516 59.5144 48.8213C59.1143 49.491 58.9142 50.2464 58.9142 51.0876C58.9142 51.9287 59.1102 52.6841 59.5022 53.3538C59.9024 54.0235 60.4495 54.5502 61.1437 54.9341ZM74.8408 55.3751H76.1516V46.8001H74.5713V52.6066L69.8428 46.8001H68.5321V55.3751H70.1123V49.5686L74.8408 55.3751Z" fill="#12CDD9"/>
</g>
<defs>
<clipPath id="clip0_48_12947">
<rect width="88" height="88" fill="white" transform="translate(24)"/>
</clipPath>
</defs>
</svg>