<svg width="20" height="20" viewBox="0 0 20 20" fill="none" xmlns="http://www.w3.org/2000/svg">
<path d="M5.06125 19.9831L5.42946 19.8802C5.78363 19.7812 5.99049 19.4139 5.89153 19.0597L1.68177 3.99457C1.62237 3.78196 1.48094 3.60166 1.2886 3.49334C1.09625 3.38501 0.868757 3.35753 0.656154 3.41695L0.608602 3.43022C0.165852 3.55393 -0.0927868 4.01313 0.0309124 4.45588L4.24077 19.521C4.33974 19.8752 4.70708 20.0821 5.06125 19.9831Z" fill="#92929D"/>
<path d="M19.8861 9.45524C18.5511 8.78957 17.3161 7.93991 16.2172 6.9311C16.1248 6.84655 16.0887 6.71675 16.1241 6.59662C16.6686 4.53669 17.0729 2.44224 17.3344 0.327661C17.3758 -0.0240632 17.1861 -0.127511 16.9861 0.113868C13.062 4.80697 6.27234 -0.744752 2.23096 3.52076C2.27948 3.61161 2.31765 3.70761 2.34475 3.80697L5.07579 13.5863C9.12406 9.37248 15.8896 14.8897 19.8068 10.207C20.0068 9.96558 20.0448 9.52421 19.8861 9.45524Z" fill="#92929D"/>
</svg>
