<svg width="24" height="25" viewBox="0 0 24 25" fill="none" xmlns="http://www.w3.org/2000/svg">
<g clip-path="url(#clip0_48_12867)">
<g clip-path="url(#clip1_48_12867)">
<path d="M23.8071 10.7787C23.9137 10.7787 24.0002 10.8652 24.0002 10.9719V13C24.0002 13.7591 23.9297 14.5013 23.7945 15.2213C22.7484 20.8139 17.8214 25.0404 11.9156 24.9997C5.28895 24.954 -0.0143974 19.5997 0.00027451 12.973C0.0148526 6.35809 5.38195 1 12.0002 1C15.2427 1 18.1847 2.28634 20.3446 4.37584C20.4226 4.45127 20.4247 4.57558 20.3479 4.65227L17.4786 7.52153C17.4048 7.59541 17.2854 7.59733 17.2097 7.52528C15.8541 6.23486 14.0198 5.44263 12.0002 5.44263C7.82971 5.44263 4.47135 8.77712 4.44304 12.9475C4.41459 17.1453 7.80909 20.5573 12.0002 20.5573C15.4008 20.5573 18.2769 18.3109 19.2254 15.2213H12.1934C12.0867 15.2213 12.0002 15.1348 12.0002 15.0281V10.9718C12.0002 10.8651 12.0867 10.7786 12.1934 10.7786H23.8071V10.7787Z" fill="#2196F3"/>
<path d="M23.8066 10.7787H22.3579C22.4646 10.7787 22.5511 10.8652 22.5511 10.9719V13C22.5511 13.7591 22.4806 14.5013 22.3454 15.2213C21.3473 20.5567 16.8171 24.6487 11.2747 24.9783C11.4867 24.9909 11.7002 24.9982 11.9152 24.9997C17.8209 25.0404 22.7479 20.8139 23.794 15.2213C23.9293 14.5013 23.9998 13.7591 23.9998 13V10.9718C23.9998 10.8652 23.9133 10.7787 23.8066 10.7787Z" fill="#1E88E5"/>
<path d="M5.13614 9.83509L1.4917 7.20184C3.53629 3.50383 7.47623 1 12.0005 1C15.243 1 18.185 2.28634 20.3449 4.37584C20.4229 4.45127 20.4249 4.57558 20.3482 4.65227L17.4789 7.52153C17.4052 7.59527 17.2859 7.59756 17.2103 7.52566C15.8547 6.235 14.0203 5.44267 12.0005 5.44267C8.95682 5.44267 6.33323 7.24192 5.13614 9.83509Z" fill="#F44336"/>
<path d="M4.08325 9.07494L5.13536 9.83512C6.22802 7.46821 8.50933 5.76355 11.2135 5.48394C11.2339 5.48173 11.2534 5.47906 11.2742 5.47709C11.0362 5.4545 10.795 5.44269 10.5511 5.44269C7.80152 5.44269 5.40527 6.89221 4.08325 9.07494Z" fill="#E53935"/>
<path d="M18.8958 4.37584C18.9738 4.45127 18.9758 4.57558 18.8991 4.65231L16.5702 6.9812C16.7933 7.15089 17.0069 7.33239 17.2096 7.52533C17.2852 7.59737 17.4046 7.59545 17.4785 7.52158L20.3478 4.65231C20.4245 4.57558 20.4224 4.45131 20.3445 4.37584C18.1845 2.28634 15.2426 1 12.0001 1C11.7568 1 11.5154 1.00811 11.2756 1.02241C14.2306 1.19842 16.8979 2.44309 18.8958 4.37584Z" fill="#E53935"/>
<path d="M20.8022 21.1552C18.6108 23.5199 15.4778 25 11.9995 25C7.30138 25 3.23394 22.3002 1.26416 18.3669L4.98486 15.8172C6.10138 18.5953 8.82154 20.5573 11.9995 20.5573C13.9938 20.5573 15.8076 19.7847 17.1578 18.5224L20.8022 21.1552Z" fill="#4CAF50"/>
<path d="M4.98534 15.8173L3.88818 16.5691C5.16248 18.943 7.66837 20.5574 10.5512 20.5574C10.795 20.5574 11.036 20.5454 11.2739 20.5229C8.41223 20.25 6.01575 18.3813 4.98534 15.8173Z" fill="#43A047"/>
<path d="M12.0001 25C15.4784 25 18.6115 23.5199 20.8029 21.1552L19.9102 20.5103C17.8526 23.0711 14.7659 24.7699 11.2776 24.9782C11.5167 24.9924 11.7575 25 12.0001 25Z" fill="#43A047"/>
<path d="M4.44267 13C4.44267 13.9957 4.63533 14.9466 4.98544 15.8172L1.26469 18.3669C0.455391 16.7521 0 14.9292 0 13C0 10.897 0.540844 8.92047 1.49119 7.20184L5.13562 9.83509C4.69088 10.7975 4.44267 11.87 4.44267 13Z" fill="#FFC107"/>
<path d="M3.88846 16.569L4.98562 15.8172C4.63551 14.9466 4.44285 13.9957 4.44285 13C4.44285 11.87 4.69105 10.7975 5.1358 9.83506L4.08369 9.07489C3.40049 10.2029 3.00398 11.5266 2.99432 12.9476C2.98541 14.2579 3.31012 15.4917 3.88846 16.569Z" fill="#FFB300"/>
</g>
</g>
<defs>
<clipPath id="clip0_48_12867">
<rect width="24" height="24" fill="white" transform="translate(0 0.637695)"/>
</clipPath>
<clipPath id="clip1_48_12867">
<rect width="24" height="24" fill="white" transform="translate(0 1)"/>
</clipPath>
</defs>
</svg>
