<svg width="24" height="24" viewBox="0 0 24 24" fill="none" xmlns="http://www.w3.org/2000/svg">
<g clip-path="url(#clip0_48_13790)">
<path d="M4.6103 24.0001C4.26057 24.0001 3.9123 23.9038 3.60212 23.7119C3.03211 23.3598 2.69208 22.7495 2.69208 22.0793V19.2668C0.68506 16.724 -0.182312 13.5486 0.247804 10.2901C0.93738 5.06202 5.23432 0.776976 10.4642 0.101865C14.1479 -0.374027 17.7639 0.833372 20.3889 3.4126C23.0141 5.99183 24.2843 9.58345 23.8745 13.267C23.2807 18.6016 18.9729 22.9903 13.6323 23.7027C11.5031 23.9851 9.34981 23.6903 7.37428 22.8442L5.4698 23.7957C5.19697 23.932 4.9029 24.0001 4.6103 24.0001ZM10.6817 1.78918C6.20332 2.36725 2.52417 6.03596 1.93329 10.5125C1.55262 13.3999 2.35608 16.2091 4.1963 18.4214C4.32319 18.5741 4.39259 18.7668 4.39259 18.9652V22.0793C4.39259 22.1797 4.44916 22.2353 4.49604 22.2654C4.5442 22.2943 4.62019 22.3192 4.70954 22.2743L6.97474 21.1425C7.20655 21.0263 7.48048 21.0222 7.71632 21.1334C9.49849 21.9696 11.4656 22.2752 13.4071 22.0171C17.9843 21.4066 21.6754 17.6474 22.1844 13.0793C22.5362 9.91798 21.4471 6.83631 19.1967 4.62586C16.9467 2.41449 13.8432 1.37976 10.6817 1.78918ZM10.573 0.945433H10.5812H10.573Z" fill="white"/>
<path d="M6.13578 14.5941L10.0392 9.03848C10.2018 8.75394 10.5768 8.67648 10.8388 8.87296L13.4538 10.834C13.631 10.967 13.8709 10.9792 14.0608 10.8653L17.245 8.6146C17.7123 8.33426 18.2559 8.8378 18.0124 9.32523L14.86 14.7794C14.7181 15.0632 14.3647 15.1661 14.0926 15.0028L10.6017 12.9082C10.4421 12.8125 10.2445 12.8048 10.0779 12.8881L6.85209 15.3512C6.37034 15.5924 5.86845 15.0619 6.13578 14.5941Z" fill="white"/>
</g>
<defs>
<clipPath id="clip0_48_13790">
<rect width="24" height="24" fill="white"/>
</clipPath>
</defs>
</svg>
