<svg width="49" height="49" viewBox="0 0 49 49" fill="none" xmlns="http://www.w3.org/2000/svg">
<circle cx="24.5" cy="24.5" r="24.5" fill="url(#paint0_linear_48_13782)"/>
<g clip-path="url(#clip0_48_13782)">
<path d="M24.5033 18.9086C21.4154 18.9086 18.9155 21.4113 18.9155 24.4964C18.9155 27.5844 21.4182 30.0843 24.5033 30.0843C27.5912 30.0843 30.0912 27.5816 30.0912 24.4964C30.0912 21.4085 27.5885 18.9086 24.5033 18.9086ZM24.5033 28.1234C22.4989 28.1234 20.8764 26.5 20.8764 24.4964C20.8764 22.4929 22.4998 20.8695 24.5033 20.8695C26.5069 20.8695 28.1302 22.4929 28.1302 24.4964C28.1312 26.5 26.5078 28.1234 24.5033 28.1234Z" fill="white"/>
<path d="M28.9898 13.68C26.9862 13.5866 22.0236 13.5911 20.0182 13.68C18.2561 13.7626 16.7017 14.1882 15.4485 15.4413C13.3542 17.5356 13.6219 20.3577 13.6219 24.4963C13.6219 28.7321 13.386 31.4888 15.4485 33.5514C17.551 35.6529 20.4139 35.378 24.5036 35.378C28.6994 35.378 30.1476 35.3807 31.6312 34.8063C33.6484 34.0232 35.171 32.2202 35.3199 28.9816C35.4142 26.9772 35.4088 22.0155 35.3199 20.0101C35.1402 16.1872 33.0885 13.8688 28.9898 13.68ZM32.1612 32.1657C30.7883 33.5387 28.8836 33.4162 24.4773 33.4162C19.9402 33.4162 18.1209 33.4833 16.7933 32.1521C15.2643 30.6304 15.5411 28.1868 15.5411 24.4818C15.5411 19.4684 15.0266 15.8578 20.0582 15.6001C21.2142 15.5593 21.5545 15.5457 24.4645 15.5457L24.5054 15.5729C29.341 15.5729 33.1348 15.0666 33.3626 20.0972C33.4143 21.2451 33.4261 21.5899 33.4261 24.4954C33.4252 28.9798 33.5105 30.8101 32.1612 32.1657Z" fill="white"/>
<path d="M30.3126 19.9938C31.0337 19.9938 31.6184 19.4092 31.6184 18.688C31.6184 17.9669 31.0337 17.3823 30.3126 17.3823C29.5914 17.3823 29.0068 17.9669 29.0068 18.688C29.0068 19.4092 29.5914 19.9938 30.3126 19.9938Z" fill="white"/>
</g>
<defs>
<linearGradient id="paint0_linear_48_13782" x1="7.17592" y1="7.17592" x2="41.8241" y2="41.8241" gradientUnits="userSpaceOnUse">
<stop stop-color="#FAE100"/>
<stop offset="0.15" stop-color="#FCB720"/>
<stop offset="0.3" stop-color="#FF7950"/>
<stop offset="0.5" stop-color="#FF1C74"/>
<stop offset="1" stop-color="#6C1CD1"/>
</linearGradient>
<clipPath id="clip0_48_13782">
<rect width="21.7778" height="21.7778" fill="white" transform="translate(13.6111 13.6111)"/>
</clipPath>
</defs>
</svg>
