<svg width="21" height="21" viewBox="0 0 21 21" fill="none" xmlns="http://www.w3.org/2000/svg">
<path fill-rule="evenodd" clip-rule="evenodd" d="M9.492 0.0366442C9.906 0.0366442 10.242 0.372644 10.242 0.786644C10.242 1.20064 9.906 1.53664 9.492 1.53664H5.753C3.169 1.53664 1.5 3.30664 1.5 6.04565V14.3596C1.5 17.0986 3.169 18.8686 5.753 18.8686H14.577C17.161 18.8686 18.831 17.0986 18.831 14.3596V10.3316C18.831 9.91765 19.167 9.58165 19.581 9.58165C19.995 9.58165 20.331 9.91765 20.331 10.3316V14.3596C20.331 17.9536 18.018 20.3686 14.577 20.3686H5.753C2.312 20.3686 0 17.9536 0 14.3596V6.04565C0 2.45164 2.312 0.0366442 5.753 0.0366442H9.492ZM18.2016 0.915244L19.4186 2.13224C20.0116 2.72424 20.3376 3.51124 20.3366 4.34924C20.3366 5.18724 20.0106 5.97325 19.4186 6.56425L11.9096 14.0732C11.3586 14.6242 10.6246 14.9282 9.8446 14.9282H6.0986C5.8966 14.9282 5.7026 14.8462 5.5616 14.7012C5.4206 14.5572 5.3436 14.3622 5.3486 14.1592L5.4426 10.3802C5.4616 9.62824 5.7646 8.92124 6.2966 8.38824H6.2976L13.7706 0.915244C14.9926 -0.304756 16.9796 -0.304756 18.2016 0.915244ZM13.155 3.65124L7.3576 9.44924C7.0986 9.70824 6.9516 10.0522 6.9426 10.4172L6.8676 13.4282H9.8446C10.2246 13.4282 10.5806 13.2812 10.8496 13.0122L16.682 7.17825L13.155 3.65124ZM14.8306 1.97624L14.215 2.59024L17.742 6.11825L18.3586 5.50324C18.6666 5.19524 18.8366 4.78524 18.8366 4.34924C18.8366 3.91224 18.6666 3.50124 18.3586 3.19324L17.1416 1.97624C16.5046 1.34124 15.4686 1.34124 14.8306 1.97624Z" fill="#12CDD9"/>
</svg>
