<svg width="20" height="20" viewBox="0 0 20 20" fill="none" xmlns="http://www.w3.org/2000/svg">
<g clip-path="url(#clip0_48_14789)">
<path d="M18.0132 2.37824L10.1683 0.0247266C10.0584 -0.00824219 9.94135 -0.00824219 9.83146 0.0247266L1.98639 2.37824C1.73857 2.45258 1.56885 2.6807 1.56885 2.93945V11.569C1.56885 12.6914 2.02326 13.8404 2.91939 14.984C3.60381 15.8575 4.55072 16.7345 5.73373 17.5909C7.72111 19.0295 9.67811 19.912 9.76045 19.9488C9.83658 19.9829 9.91822 20 9.99986 20C10.0815 20 10.1631 19.983 10.2393 19.9488C10.3216 19.912 12.2785 19.0295 14.2659 17.5909C15.4489 16.7345 16.3958 15.8575 17.0803 14.984C17.9764 13.8404 18.4307 12.6914 18.4307 11.569V2.93945C18.4307 2.6807 18.2611 2.45258 18.0132 2.37824Z" fill="#92929D"/>
</g>
<defs>
<clipPath id="clip0_48_14789">
<rect width="20" height="20" fill="white"/>
</clipPath>
</defs>
</svg>
