<svg width="20" height="20" viewBox="0 0 20 20" fill="none" xmlns="http://www.w3.org/2000/svg">
<path fill-rule="evenodd" clip-rule="evenodd" d="M9.16675 1.66669H5.00008C3.15925 1.66669 1.66675 3.15919 1.66675 5.00002V15C1.66675 16.8409 3.15925 18.3334 5.00008 18.3334H15.0001C16.8409 18.3334 18.3334 16.8409 18.3334 15C18.3334 13.1075 18.3334 10.8334 18.3334 10.8334C18.3334 10.3734 17.9601 10 17.5001 10C17.0401 10 16.6667 10.3734 16.6667 10.8334V15C16.6667 15.92 15.9201 16.6667 15.0001 16.6667C12.2251 16.6667 7.77425 16.6667 5.00008 16.6667C4.07925 16.6667 3.33341 15.92 3.33341 15C3.33341 12.225 3.33341 7.77419 3.33341 5.00002C3.33341 4.07919 4.07925 3.33335 5.00008 3.33335H9.16675C9.62675 3.33335 10.0001 2.96002 10.0001 2.50002C10.0001 2.04002 9.62675 1.66669 9.16675 1.66669ZM15.4884 3.33335H12.5001C12.0401 3.33335 11.6667 2.96002 11.6667 2.50002C11.6667 2.04002 12.0401 1.66669 12.5001 1.66669H17.5001C17.9601 1.66669 18.3334 2.04002 18.3334 2.50002V7.50002C18.3334 7.96002 17.9601 8.33335 17.5001 8.33335C17.0401 8.33335 16.6667 7.96002 16.6667 7.50002V4.51169L10.5892 10.5892C10.2642 10.9142 9.73591 10.9142 9.41091 10.5892C9.08508 10.2642 9.08508 9.73585 9.41091 9.41085L15.4884 3.33335Z" fill="#12CDD9"/>
</svg>
