<svg width="24" height="24" viewBox="0 0 24 24" fill="none" xmlns="http://www.w3.org/2000/svg">
<g clip-path="url(#clip0_48_13795)">
<path d="M23.7945 0.206801C23.5957 0.0078636 23.2972 -0.0533082 23.0362 0.0511292L0.442496 9.08853C0.183981 9.19193 0.0108719 9.43812 0.000934453 9.71642C-0.00895615 9.99467 0.146294 10.2525 0.396793 10.374L9.30621 14.695L13.6272 23.6044C13.7451 23.8474 13.9912 24.0008 14.2597 24.0008C14.2681 24.0008 14.2765 24.0006 14.2848 24.0003C14.563 23.9904 14.8093 23.8173 14.9127 23.5588L23.9502 0.965144C24.0546 0.703957 23.9934 0.405691 23.7945 0.206801ZM2.44237 9.80318L20.3779 2.62902L9.68909 13.3178L2.44237 9.80318ZM14.1981 21.5589L10.6834 14.3121L21.3723 3.62333L14.1981 21.5589Z" fill="#12CDD9"/>
</g>
<defs>
<clipPath id="clip0_48_13795">
<rect width="24" height="24" fill="white"/>
</clipPath>
</defs>
</svg>
